# xmcd
#
# Track frame offsets:
#	150
#	14448
#	22824
#	34130
#	42754
#	53086
#	65792
#	74734
#	82909
#	90967
#	104322
#	115193
#	123446
#	132877
#	143676
#
# Disc length: 2092 seconds
#
# Revision: 0
# Processed by: cddbd v1.4PL0 Copyright (c) Steve Scherf et al.
# Submitted via: EasyCDDAExtractor 5.0.5.1
#
DISCID=c3082a0f
DTITLE=Firebirds - Their Second Album
DYEAR=1900
DGENRE=Blues
TTITLE0=Footloose
TTITLE1=Got a girl
TTITLE2=Missed out
TTITLE3=Downshiftin
TTITLE4=Next in line
TTITLE5=Go ahead and cry
TTITLE6=Honey talk
TTITLE7=Edge of Nowhere
TTITLE8=Sham
TTITLE9=Feelings
TTITLE10=Ain't gonna cheat on me
TTITLE11=Linda
TTITLE12=Last down
TTITLE13=You know I do
TTITLE14=You ain't gonna bring me down on my knees
EXTD=
EXTT0=
EXTT1=
EXTT2=
EXTT3=
EXTT4=
EXTT5=
EXTT6=
EXTT7=
EXTT8=
EXTT9=
EXTT10=
EXTT11=
EXTT12=
EXTT13=
EXTT14=
PLAYORDER=
